<?xml version="1.0" encoding="utf-8"?>
<!-- Generator: Adobe Illustrator 26.1.0, SVG Export Plug-In . SVG Version: 6.00 Build 0)  -->
<svg version="1.1" id="Слой_1" xmlns="http://www.w3.org/2000/svg" xmlns:xlink="http://www.w3.org/1999/xlink" x="0px" y="0px"
	 viewBox="0 0 700 700.7" style="enable-background:new 0 0 700 700.7;" xml:space="preserve">
<style type="text/css">
	.st0{fill:none;}
	.st1{fill:#FD7D72;}
</style>
<g id="Layer_2">
	<g id="invisible_box">
		<rect x="-50" y="-33.3" class="st0" width="800" height="800"/>
	</g>
	<g id="icons_Q2">
		<path class="st1" d="M350,95l88.3,138.3H260L350,95 M350,0c-11.6,0.5-22.2,6.7-28.3,16.7L170,250c-5.1,10.5-5.1,22.8,0,33.3
			c5.6,10.4,16.5,16.8,28.3,16.7H500c11.6-0.5,22.2-6.7,28.3-16.7c6.7-10.1,6.7-23.2,0-33.3l-150-233.3C372.7,6.3,361.8-0.2,350,0z"
			/>
		<path class="st1" d="M666.7,683.3H433.3c-18.4,0-33.3-14.9-33.3-33.3V416.7c0-18.4,14.9-33.3,33.3-33.3h233.3
			c18.4,0,33.3,14.9,33.3,33.3V650C700,668.4,685.1,683.3,666.7,683.3z M466.7,616.7h166.7V450H466.7V616.7z"/>
		<path class="st1" d="M166.7,433.3c55.2,0,100,44.8,100,100s-44.8,100-100,100s-100-44.8-100-100S111.4,433.3,166.7,433.3
			 M166.7,366.7C74.6,366.7,0,441.3,0,533.3S74.6,700,166.7,700s166.7-74.6,166.7-166.7S258.7,366.7,166.7,366.7z"/>
	</g>
</g>
</svg>
