<?xml version="1.0" encoding="utf-8"?>
<!-- Generator: Adobe Illustrator 26.1.0, SVG Export Plug-In . SVG Version: 6.00 Build 0)  -->
<svg version="1.1" id="Слой_1" xmlns="http://www.w3.org/2000/svg" xmlns:xlink="http://www.w3.org/1999/xlink" x="0px" y="0px"
	 viewBox="0 0 53 53" style="enable-background:new 0 0 53 53;" xml:space="preserve">
<style type="text/css">
	.st0{fill:#FD7D72;}
</style>
<path class="st0" d="M15.9,23.8c-0.5,0-1,0.2-1.5,0.4c-0.4,0.3-0.8,0.7-1,1.2c-0.2,0.5-0.3,1-0.2,1.5c0.1,0.5,0.4,1,0.7,1.4
	c0.4,0.4,0.8,0.6,1.4,0.7c0.5,0.1,1,0,1.5-0.2c0.5-0.2,0.9-0.5,1.2-1c0.3-0.4,0.4-0.9,0.4-1.5c0-0.7-0.3-1.4-0.8-1.9
	C17.3,24.1,16.6,23.8,15.9,23.8z M26.5,23.8c-0.5,0-1,0.2-1.5,0.4c-0.4,0.3-0.8,0.7-1,1.2c-0.2,0.5-0.3,1-0.2,1.5
	c0.1,0.5,0.4,1,0.7,1.4c0.4,0.4,0.8,0.6,1.4,0.7c0.5,0.1,1,0,1.5-0.2c0.5-0.2,0.9-0.5,1.2-1c0.3-0.4,0.4-0.9,0.4-1.5
	c0-0.7-0.3-1.4-0.8-1.9C27.9,24.1,27.2,23.8,26.5,23.8z M37.1,23.8c-0.5,0-1,0.2-1.5,0.4c-0.4,0.3-0.8,0.7-1,1.2
	c-0.2,0.5-0.3,1-0.2,1.5c0.1,0.5,0.4,1,0.7,1.4c0.4,0.4,0.8,0.6,1.4,0.7c0.5,0.1,1,0,1.5-0.2c0.5-0.2,0.9-0.5,1.2-1
	c0.3-0.4,0.4-0.9,0.4-1.5c0-0.7-0.3-1.4-0.8-1.9C38.5,24.1,37.8,23.8,37.1,23.8z M26.5,0C23,0,19.6,0.7,16.4,2
	c-3.2,1.3-6.1,3.3-8.6,5.7c-5,5-7.8,11.7-7.8,18.7c0,6.1,2.1,12.1,6,16.8l-5.3,5.3c-0.4,0.4-0.6,0.8-0.7,1.4c-0.1,0.5,0,1,0.2,1.5
	c0.2,0.5,0.6,0.9,1,1.2c0.4,0.3,1,0.4,1.5,0.4h23.8c7,0,13.7-2.8,18.7-7.8c5-5,7.8-11.7,7.8-18.7c0-7-2.8-13.8-7.8-18.7
	C40.3,2.8,33.5,0,26.5,0z M26.5,47.7H9.1l2.5-2.5c0.3-0.2,0.4-0.5,0.6-0.9c0.1-0.3,0.2-0.7,0.2-1c0-0.7-0.3-1.4-0.8-1.9
	c-3.5-3.5-5.6-8-6.1-12.9c-0.5-4.9,0.7-9.8,3.5-13.9c2.7-4.1,6.8-7.1,11.5-8.5C25,4.8,30.1,5,34.6,6.9c4.5,1.9,8.3,5.3,10.6,9.6
	c2.3,4.3,3.1,9.3,2.1,14.1s-3.5,9.1-7.3,12.3C36.1,46,31.4,47.7,26.5,47.7z"/>
</svg>
