<svg width="15" height="16" viewBox="0 0 15 16" fill="none" xmlns="http://www.w3.org/2000/svg">
<path d="M6.32812 0.375C5.91797 0.375 5.625 0.697266 5.625 1.07812V6H3.04688C2.51953 6 2.25586 6.64453 2.63672 7.02539L7.08984 11.4785C7.29492 11.6836 7.67578 11.6836 7.88086 11.4785L12.334 7.02539C12.7148 6.64453 12.4512 6 11.9238 6H9.375V1.07812C9.375 0.697266 9.05273 0.375 8.67188 0.375H6.32812ZM15 11.3906C15 11.0098 14.6777 10.6875 14.2969 10.6875H9.99023L8.55469 12.123C7.96875 12.7383 7.00195 12.7383 6.41602 12.123L4.98047 10.6875H0.703125C0.292969 10.6875 0 11.0098 0 11.3906V14.6719C0 15.082 0.292969 15.375 0.703125 15.375H14.2969C14.6777 15.375 15 15.082 15 14.6719V11.3906ZM11.3672 13.9688C11.3672 14.291 11.1035 14.5547 10.7812 14.5547C10.459 14.5547 10.1953 14.291 10.1953 13.9688C10.1953 13.6465 10.459 13.3828 10.7812 13.3828C11.1035 13.3828 11.3672 13.6465 11.3672 13.9688ZM13.2422 13.9688C13.2422 14.291 12.9785 14.5547 12.6562 14.5547C12.334 14.5547 12.0703 14.291 12.0703 13.9688C12.0703 13.6465 12.334 13.3828 12.6562 13.3828C12.9785 13.3828 13.2422 13.6465 13.2422 13.9688Z" fill="white"/>
</svg>
