<?xml version="1.0" encoding="utf-8"?>
<!-- Generator: Adobe Illustrator 26.1.0, SVG Export Plug-In . SVG Version: 6.00 Build 0)  -->
<svg version="1.1" id="Capa_1" xmlns="http://www.w3.org/2000/svg" xmlns:xlink="http://www.w3.org/1999/xlink" x="0px" y="0px"
	 viewBox="0 0 64 64" style="enable-background:new 0 0 64 64;" xml:space="preserve">
<style type="text/css">
	.st0{fill:#FFFFFF;stroke:#FFFFFF;stroke-miterlimit:10;}
</style>
<ellipse class="st0" cx="32.1" cy="32.3" rx="30.7" ry="30.3"/>
<g>
	<g>
		<g id="circle_4_">
			<g>
				<path d="M32,0C14.3,0,0,14.3,0,32s14.3,32,32,32s32-14.3,32-32S49.7,0,32,0z M32,62C15.4,62,2,48.6,2,32C2,15.4,15.4,2,32,2
					s30,13.4,30,30C62,48.6,48.6,62,32,62z"/>
			</g>
		</g>
		<g id="mail">
			<g>
				<path d="M50.4,17.6H13.6c-1.4,0-2.6,1.2-2.6,2.6v23.6c0,1.4,1.2,2.6,2.6,2.6h36.8c1.4,0,2.6-1.2,2.6-2.6V20.2
					C53,18.7,51.8,17.6,50.4,17.6z M48,20.2L32,35.9L16.1,20.2H48z M13.6,43.8V21.5l12.6,12.6l-9.9,9.7H13.6z M20.2,43.8l8-7.8
					l2.1,2.1c1,1,2.7,1,3.7,0l2-2l8,7.7H20.2z M50.4,43.8h-2.5L38,34.1l12.4-12.4V43.8z"/>
			</g>
		</g>
	</g>
</g>
</svg>
