<?xml version="1.0" encoding="utf-8"?>
<!-- Generator: Adobe Illustrator 26.1.0, SVG Export Plug-In . SVG Version: 6.00 Build 0)  -->
<svg version="1.1" id="Слой_1" xmlns="http://www.w3.org/2000/svg" xmlns:xlink="http://www.w3.org/1999/xlink" x="0px" y="0px"
	 viewBox="0 0 640 385.8" style="enable-background:new 0 0 640 385.8;" xml:space="preserve">
<style type="text/css">
	.st0{fill:#FD7D72;}
</style>
<path class="st0" d="M272.2,0.6l-51.1,51.1c-15.3,4.2-29.5,11.9-41.5,22.5L153,97.9c-10.2,9.1-23.5,14.1-37.2,14.1H96v128
	c20.4,0.6,39.8,8.9,54.3,23.4l35.6,35.6l7,7l0,0l27,27c6.2,6.2,16.4,6.2,22.6,0c1.7-1.7,3-3.7,3.7-5.8c2.8-7.7,9.3-13.5,17.3-15.3
	s16.4,0.6,22.2,6.5l10.8,10.6c11.6,11.6,30.4,11.6,41.9,0c5.4-5.4,8.3-12.3,8.6-19.4c0.4-8.8,5.6-16.6,13.6-20.4s17.3-3,24.4,2.1
	c9.4,6.7,22.5,5.8,30.9-2.6c9.4-9.4,9.4-24.6,0-33.9L340.1,179l-35.8,33c-27.3,25.2-69.2,25.6-97,0.9
	c-31.7-28.2-32.4-77.4-1.6-106.5l70.1-66.2C303.2,14.4,339.4,0,377.1,0c36.1,0,71,13.3,97.9,37.2L505.1,64H544h40h40
	c8.8,0,16,7.2,16,16v208c0,17.7-14.3,32-32,32h-32c-11.8,0-22.2-6.4-27.7-16h-84.9c-3.4,6.7-7.9,13.1-13.5,18.7
	c-17.1,17.1-40.8,23.8-63,20.1c-3.6,7.3-8.5,14.1-14.6,20.2c-27.3,27.3-70,30-100.4,8.1c-25.1,20.8-62.5,19.5-86-4.1L159,340l-7-7
	l-35.6-35.6c-5.5-5.5-12.7-8.7-20.4-9.3c0,17.6-14.4,31.9-32,31.9H32c-17.7,0-32-14.3-32-32V80c0-8.8,7.2-16,16-16h40h40h19.8
	c2,0,3.9-0.7,5.3-2l26.5-23.6C175.5,13.7,211.4,0,248.7,0H259C263.4,0,267.9,0.2,272.2,0.6z M544,256V112h-48
	c-5.9,0-11.6-2.2-15.9-6.1l-36.9-32.8C425,56.9,401.5,48,377.1,48c-25.4,0-49.8,9.7-68.3,27.1l-70.1,66.2
	c-10.3,9.8-10.1,26.3,0.5,35.7c9.3,8.3,23.4,8.1,32.5-0.3l71.9-66.4c9.7-9,24.9-8.4,33.9,1.4s8.4,24.9-1.4,33.9l-0.8,0.8l74.4,74.4
	c10,10,16.5,22.3,19.4,35.1H544V256z M64,272c0-8.8-7.2-16-16-16s-16,7.2-16,16s7.2,16,16,16S64,280.8,64,272z M592,288
	c8.8,0,16-7.2,16-16s-7.2-16-16-16s-16,7.2-16,16S583.2,288,592,288z"/>
</svg>
