<?xml version="1.0" encoding="utf-8"?>
<!-- Generator: Adobe Illustrator 26.1.0, SVG Export Plug-In . SVG Version: 6.00 Build 0)  -->
<svg version="1.1" id="Layer_1" xmlns="http://www.w3.org/2000/svg" xmlns:xlink="http://www.w3.org/1999/xlink" x="0px" y="0px"
	 viewBox="0 0 800 800" style="enable-background:new 0 0 800 800;" xml:space="preserve">
<style type="text/css">
	.st0{fill:#FD7D72;}
	.st1{fill:#FD7D72;stroke:#FD7D72;stroke-width:20;stroke-miterlimit:10;}
</style>
<g>
	<path class="st0" d="M591,120.8c-23.6,0-45.7,9.2-62.4,25.8c-34.4,34.4-34.4,90.4,0,124.8c16.7,16.7,38.8,25.8,62.4,25.8
		c23.6,0,45.7-9.2,62.4-25.8c34.4-34.4,34.4-90.4,0-124.8C636.7,130,614.6,120.8,591,120.8z M619.2,237.4
		c-7.6,7.6-17.7,11.7-28.3,11.7s-20.8-4.2-28.3-11.7c-15.6-15.6-15.6-41,0-56.6c7.6-7.6,17.7-11.7,28.3-11.7s20.8,4.2,28.3,11.7
		C634.8,196.4,634.8,221.8,619.2,237.4z"/>
	<path class="st1" d="M720.9,79.2C676.2,34.6,616.8,10,553.7,10S431.2,34.6,386.5,79.2c-67.9,67.9-87.7,169.2-51.6,256.8L10.3,660.6
		L10,789.7l232.5,0.3v-89.6h89.6v-89.6h89.6V507.1l42.1-42.1c28.4,11.6,59,17.6,89.7,17.6c63.1,0,122.5-24.6,167.2-69.2
		C813,321.2,813,171.4,720.9,79.2z M686.7,379.2c-35.5,35.5-82.8,55.1-133,55.1c-29.2,0-58.3-6.8-84.3-19.8l-15.6-7.8l-80.4,80.3
		v75.5h-89.5v89.6h-89.6v89.6l-136-0.2l0.1-60.8l334.7-334.6l-7.8-15.6c-36.3-72.5-22.1-159.8,35.2-217.1
		c35.5-35.5,82.8-55.1,133-55.1c50.2,0,97.5,19.6,133,55.1C760.1,186.7,760.1,305.9,686.7,379.2z"/>
</g>
</svg>
