<?xml version="1.0" encoding="utf-8"?>
<!-- Generator: Adobe Illustrator 26.1.0, SVG Export Plug-In . SVG Version: 6.00 Build 0)  -->
<svg version="1.1" id="Слой_1" xmlns="http://www.w3.org/2000/svg" xmlns:xlink="http://www.w3.org/1999/xlink" x="0px" y="0px"
	 viewBox="0 0 533.3 733.3" style="enable-background:new 0 0 533.3 733.3;" xml:space="preserve">
<style type="text/css">
	.st0{fill-rule:evenodd;clip-rule:evenodd;fill:#FD7D72;}
</style>
<path class="st0" d="M275.4,1.2C289.9,5.1,300,18.3,300,33.3v233.3h200c11.9,0,23,6.4,28.9,16.7c5.9,10.3,5.9,23.1-0.1,33.4
	l-233.3,400c-7.6,13-23,19.3-37.5,15.4c-14.5-3.9-24.6-17.1-24.6-32.2V466.7h-200c-11.9,0-23-6.4-28.9-16.7
	c-5.9-10.4-5.9-23.1,0.1-33.4l233.3-400C245.5,3.5,260.8-2.8,275.4,1.2z M91.4,400h175.3c18.4,0,33.3,14.9,33.3,33.3v143.4
	l142-243.4H266.7c-18.4,0-33.3-14.9-33.3-33.3V156.6L91.4,400z"/>
</svg>
