<?xml version="1.0" encoding="utf-8"?>
<!-- Generator: Adobe Illustrator 26.1.0, SVG Export Plug-In . SVG Version: 6.00 Build 0)  -->
<svg version="1.1" id="Stock_cut" xmlns="http://www.w3.org/2000/svg" xmlns:xlink="http://www.w3.org/1999/xlink" x="0px" y="0px"
	 viewBox="0 0 820 820" style="enable-background:new 0 0 820 820;" xml:space="preserve">
<style type="text/css">
	.st0{fill:none;stroke:#FD7D72;stroke-width:70;stroke-linejoin:round;stroke-miterlimit:250;}
</style>
<desc></desc>
<g>
	<path class="st0" d="M185,635h-25c-69,0-125-56-125-125l0,0c0-69,56-125,125-125h25V635z"/>
	<path class="st0" d="M660,635h-25V385h25c69,0,125,56,125,125l0,0C785,579,729,635,660,635z"/>
	<path class="st0" d="M135,385v-75c0-151.9,123.1-275,275-275l0,0c151.9,0,275,123.1,275,275v75"/>
	<path class="st0" d="M685,635v100c0,27.6-22.4,50-50,50h-75"/>
	<line class="st0" x1="460" y1="785" x2="510" y2="785"/>
	<line class="st0" x1="410" y1="610" x2="410" y2="660"/>
	<path class="st0" d="M410,560v-65.4c0-36,21.9-68.4,55.4-81.8l0,0C507.4,396,535,355.3,535,310l0,0c0-69-56-125-125-125l0,0
		c-69,0-125,56-125,125l0,0"/>
</g>
</svg>
