<?xml version="1.0" encoding="utf-8"?>
<!-- Generator: Adobe Illustrator 26.1.0, SVG Export Plug-In . SVG Version: 6.00 Build 0)  -->
<svg version="1.1" id="Слой_1" xmlns="http://www.w3.org/2000/svg" xmlns:xlink="http://www.w3.org/1999/xlink" x="0px" y="0px"
	 viewBox="0 0 633.3 733.3" style="enable-background:new 0 0 633.3 733.3;" xml:space="preserve">
<style type="text/css">
	.st0{fill-rule:evenodd;clip-rule:evenodd;fill:#FD7D72;}
</style>
<path class="st0" d="M233.3,0c-8.8,0-17.3,3.5-23.6,9.8l-200,200C3.5,216,0,224.5,0,233.3v400c0,55.2,44.8,100,100,100h33.3
	c18.4,0,33.3-14.9,33.3-33.3c0-18.4-14.9-33.3-33.3-33.3H100c-18.4,0-33.3-14.9-33.3-33.3V266.7h166.7c18.4,0,33.3-14.9,33.3-33.3
	V66.7H500c18.4,0,33.3,14.9,33.3,33.3v166.7c0,18.4,14.9,33.3,33.3,33.3s33.3-14.9,33.3-33.3V100C600,44.8,555.2,0,500,0H233.3z
	 M200,200h-86.2l86.2-86.2V200z M266.7,366.7c-18.4,0-33.3,14.9-33.3,33.3v133.3v133.3c0,18.4,14.9,33.3,33.3,33.3H400h200
	c18.4,0,33.3-14.9,33.3-33.3V533.3V400c0-18.4-14.9-33.3-33.3-33.3H400H266.7z M300,500v-66.7h66.7V500H300z M433.3,500v-66.7h133.3
	V500H433.3z M433.3,633.3v-66.7h133.3v66.7H433.3z M366.7,566.7v66.7H300v-66.7H366.7z"/>
</svg>
