<?xml version="1.0" encoding="utf-8"?>
<!-- Generator: Adobe Illustrator 26.1.0, SVG Export Plug-In . SVG Version: 6.00 Build 0)  -->
<svg version="1.1" id="Слой_1" xmlns="http://www.w3.org/2000/svg" xmlns:xlink="http://www.w3.org/1999/xlink" x="0px" y="0px"
	 viewBox="0 0 50 50" style="enable-background:new 0 0 50 50;" xml:space="preserve">
<style type="text/css">
	.st0{fill:#FFFFFF;stroke:#FFFFFF;stroke-miterlimit:10;}
</style>
<circle class="st0" cx="25.1" cy="24.9" r="22.1"/>
<g>
	<g transform="scale(5.12,5.12)">
		<path d="M4.9,0.4c-2.5,0-4.5,2-4.5,4.5s2,4.5,4.5,4.5s4.5-2,4.5-4.5S7.4,0.4,4.9,0.4z M4.9,0.8C7.2,0.8,9,2.6,9,4.9S7.2,9,4.9,9
			S0.8,7.2,0.8,4.9S2.6,0.8,4.9,0.8z M6.7,2.7c-0.1,0-0.3,0-0.5,0.1C5.9,2.9,2.7,4.3,2.4,4.5C2.1,4.5,1.8,4.7,1.8,5.1
			c0,0.3,0.2,0.4,0.5,0.6C2.4,5.7,2.8,5.8,3,5.9c0.1,0,0.2,0,0.3,0c0.2,0,0.4-0.1,0.6-0.1c0,0,0,0.1,0,0.1c0,0.2,0.2,0.4,0.3,0.5
			c0.1,0.1,1.1,0.7,1.3,0.9c0.2,0.2,0.4,0.2,0.7,0.2c0.4,0,0.6-0.5,0.7-0.7c0.1-0.3,0.5-2.9,0.5-3.3c0-0.3-0.1-0.6-0.3-0.7
			C6.9,2.8,6.8,2.7,6.7,2.7L6.7,2.7z M6.7,3.1c0.1,0,0.1,0,0.1,0c0.1,0,0.1,0.1,0.1,0.3c0,0.5-0.4,3-0.5,3.2
			C6.3,6.9,6.3,7.1,6.1,7.1C6,7.1,5.8,7,5.7,6.9C5.5,6.8,4.5,6.2,4.4,6.1C4.3,6,4.1,5.8,4.3,5.6c0.1-0.2,1.3-1.3,1.4-1.4
			c0.1-0.1,0-0.2,0-0.2c0,0-0.1,0-0.1,0C5.5,4.2,3.8,5.3,3.7,5.4C3.6,5.5,3.4,5.5,3.3,5.5c-0.1,0-0.1,0-0.2,0
			C2.9,5.4,2.5,5.3,2.3,5.3C2.2,5.2,2.1,5.2,2.1,5.1c0-0.1,0.2-0.2,0.4-0.3c0.2-0.1,3.6-1.5,3.8-1.6C6.5,3.2,6.6,3.1,6.7,3.1
			L6.7,3.1z"/>
	</g>
</g>
</svg>
